# xmcd
#
# Track frame offsets: 
#        150
#        12697
#        29941
#        45968
#        62215
#        80339
#        103061
#        118434
#        137921
#        154849
#        174327
#        195592
#        209098
#        224694
#        243682
#        259719
#
# Disc length: 3734 seconds
#
# Revision: 2
# Processed by: cddbd v1.5.2PL0 Copyright (c) Steve Scherf et al.
# Submitted via: ExactAudioCopy v1.0b1
#
DISCID=fd0e9410
DTITLE=Die Sekte - Die Sekte
DYEAR=2009
DGENRE=Hip-Hop
TTITLE0=Hier gehts um Rap
TTITLE1=Wer ist da
TTITLE2=Rockstarz
TTITLE3=Kriegstrommel
TTITLE4=Fresse halten
TTITLE5=Ding Dong
TTITLE6=Friedhof
TTITLE7=Jetzt is aus
TTITLE8=Echte Männer
TTITLE9=Rums im Gesicht
TTITLE10=Wir chilln
TTITLE11=Alte Schule
TTITLE12=Mittelfinga ab
TTITLE13=Geht in Deckung
TTITLE14=Sekte Gang
TTITLE15=Mörderrap II
EXTD=
EXTT0=
EXTT1=
EXTT2=
EXTT3=
EXTT4=
EXTT5=
EXTT6=
EXTT7=
EXTT8=
EXTT9=
EXTT10=
EXTT11=
EXTT12=
EXTT13=
EXTT14=
EXTT15=
PLAYORDER=
